<svg xmlns="http://www.w3.org/2000/svg" width="81" height="81" viewBox="0 0 81 81" fill="none">
<circle cx="40.5" cy="40.5" r="40.5" fill="#D8F7D8"/>
<mask id="mask0_128_1422" style="mask-type:alpha" maskUnits="userSpaceOnUse" x="20" y="18" width="43" height="43">
<rect x="20" y="18" width="43" height="43" fill="#D9D9D9"/>
</mask>
<g mask="url(#mask0_128_1422)">
<path d="M41.3575 52.6103C40.368 52.6103 39.5658 51.8081 39.5658 50.8186V30.7967L30.8091 39.5534C30.1059 40.2567 28.9642 40.2516 28.2672 39.5422C27.5789 38.8416 27.5839 37.7172 28.2784 37.0227L39.9433 25.3578C40.7243 24.5768 41.9907 24.5768 42.7717 25.3578L54.4366 37.0227C55.1311 37.7172 55.1361 38.8416 54.4478 39.5422C53.7508 40.2516 52.6091 40.2567 51.9059 39.5535L43.1492 30.7967V50.8186C43.1492 51.8081 42.347 52.6103 41.3575 52.6103Z" fill="#1C1B1F"/>
</g>
</svg>